<svg xmlns="http://www.w3.org/2000/svg" viewBox="0 0 37.61 56.41"><defs><style>.cls-1{fill:#fff;}</style></defs><title>MOUSE</title><g id="Capa_2" data-name="Capa 2"><g id="Capa_1-2" data-name="Capa 1"><path class="cls-1" d="M18.8,0A18.82,18.82,0,0,0,0,18.8V37.62a18.8,18.8,0,0,0,37.61,0V18.8A18.82,18.82,0,0,0,18.8,0ZM35.52,37.62a16.72,16.72,0,0,1-33.43,0V18.8a16.72,16.72,0,0,1,33.43,0Z"/><path class="cls-1" d="M18.8,6.27a1,1,0,0,0-1,1v9.46a1,1,0,0,0,2.09,0V7.31A1,1,0,0,0,18.8,6.27Z"/></g></g></svg>